<svg width="11" height="10" viewBox="0 0 11 10" fill="none" xmlns="http://www.w3.org/2000/svg">
<path fill-rule="evenodd" clip-rule="evenodd" d="M0.611111 0C0.273167 0 0 0.248333 0 0.555556C0 5.77111 4.65178 10 10.3889 10C10.7268 10 11 9.75167 11 9.44444V7.5C11 7.19333 10.7268 6.945 10.3889 6.945C9.62622 6.945 8.89289 6.83333 8.206 6.62889C8.14489 6.61111 8.08072 6.60222 8.01717 6.60222C7.86133 6.60222 7.70489 6.65667 7.58572 6.765L6.24067 7.98889C4.51 7.18889 3.09528 5.90278 2.21406 4.33L3.5585 3.10389C3.72656 2.95167 3.77606 2.73222 3.70822 2.54C3.48333 1.915 3.3605 1.24833 3.3605 0.555556C3.3605 0.248333 3.08733 0 2.75 0H0.611111Z" fill="white"/>
</svg>
