<svg width="29" height="29" viewBox="0 0 29 29" fill="none" xmlns="http://www.w3.org/2000/svg">
<circle cx="14.5" cy="14.5" r="14.5" fill="#C841BA"/>
<path d="M14.9474 8.21739C16.7711 8.21739 17.0316 8.21739 17.7263 8.21739C18.4211 8.21739 18.7684 8.3913 19.0289 8.47826C19.3763 8.56522 19.55 8.73913 19.8105 9C20.1579 9.26087 20.2447 9.52174 20.4184 9.86957C20.5053 10.1304 20.5921 10.4783 20.6789 11.1739C20.6789 11.8696 20.6789 12.1304 20.6789 13.9565C20.6789 15.7826 20.6789 16.0435 20.6789 16.7391C20.6789 17.4348 20.5053 17.7826 20.4184 18.0435C20.3316 18.3913 20.1579 18.5652 19.8974 18.8261C19.6368 19.087 19.4632 19.2609 19.1158 19.3478C18.8553 19.4348 18.5079 19.5217 17.8132 19.6087C17.1184 19.6087 16.8579 19.6087 15.0342 19.6087C13.2105 19.6087 12.95 19.6087 12.2553 19.6087C11.5605 19.6087 11.2132 19.4348 10.9526 19.3478C10.6053 19.2609 10.4316 19.087 10.1711 18.8261C9.91053 18.5652 9.73684 18.3913 9.65 18.0435C9.56316 17.7826 9.47632 17.4348 9.38947 16.7391C9.38947 16.0435 9.38947 15.7826 9.38947 13.9565C9.38947 12.1304 9.38947 11.8696 9.38947 11.1739C9.38947 10.4783 9.56316 10.1304 9.65 9.86957C9.65 9.52174 9.82368 9.26087 10.0842 9C10.3447 8.82609 10.5184 8.65217 10.8658 8.47826C11.1263 8.3913 11.4737 8.30435 12.1684 8.30435C12.8632 8.21739 13.1237 8.21739 14.9474 8.21739ZM14.9474 7C13.0368 7 12.7763 7 12.0816 7C11.3 7 10.8658 7.17391 10.4316 7.34783C9.91053 7.52174 9.56316 7.78261 9.12895 8.13043C8.78158 8.56522 8.52105 8.91304 8.34737 9.34783C8.17368 9.86957 8.08684 10.3043 8 11.087C8 11.8696 8 12.0435 8 13.9565C8 15.8696 8 16.1304 8 16.8261C8 17.6087 8.17368 18.0435 8.34737 18.4783C8.52105 18.913 8.78158 19.3478 9.12895 19.6957C9.47632 20.0435 9.91053 20.3043 10.3447 20.4783C10.7789 20.6522 11.3 20.7391 11.9947 20.8261C12.7763 20.8261 12.95 20.8261 14.8605 20.8261C16.7711 20.8261 17.0316 20.8261 17.7263 20.8261C18.5079 20.8261 18.9421 20.6522 19.3763 20.4783C19.8105 20.3043 20.2447 20.0435 20.5921 19.6957C20.9395 19.3478 21.2 18.913 21.3737 18.4783C21.5474 18.0435 21.6342 17.5217 21.7211 16.8261C21.7211 16.0435 21.7211 15.8696 21.7211 13.9565C21.7211 12.0435 21.7211 11.7826 21.7211 11.087C21.7211 10.3043 21.5474 9.86957 21.3737 9.43478C21.2 9 20.9395 8.56522 20.5921 8.21739C20.2447 7.86957 19.8105 7.6087 19.3763 7.43478C18.9421 7.26087 18.4211 7.17391 17.7263 7.08696C17.1184 7 16.8579 7 14.9474 7Z" fill="white"/>
<path d="M14.9474 10.3913C13.0368 10.3913 11.3868 11.9565 11.3868 13.9565C11.3868 15.9565 12.95 17.5217 14.9474 17.5217C16.9447 17.5217 18.5079 15.9565 18.5079 13.9565C18.5947 11.9565 16.9447 10.3913 14.9474 10.3913ZM14.9474 16.3043C13.6447 16.3043 12.6026 15.2609 12.6026 13.9565C12.6026 12.6522 13.7316 11.6087 14.9474 11.6087C16.1632 11.6087 17.2921 12.6522 17.2921 13.9565C17.2921 15.2609 16.25 16.3043 14.9474 16.3043Z" fill="white"/>
<path d="M19.55 10.2174C19.55 10.6522 19.2026 11.0869 18.6815 11.0869C18.2473 11.0869 17.8131 10.7391 17.8131 10.2174C17.8131 9.78259 18.1605 9.34781 18.6815 9.34781C19.1157 9.34781 19.55 9.78259 19.55 10.2174Z" fill="white"/>
</svg>
