<svg width="29" height="29" viewBox="0 0 29 29" fill="none" xmlns="http://www.w3.org/2000/svg">
<circle cx="14.5" cy="14.5" r="14.5" fill="#007BB6"/>
<g clip-path="url(#clip0)">
<path d="M15.7307 12.7177C15.9001 12.5495 16.0484 12.3603 16.2179 12.2132C16.5779 11.8979 17.0015 11.6877 17.4675 11.6036C18.1452 11.4564 18.823 11.4354 19.5008 11.5826C20.5386 11.8138 21.2163 12.4444 21.5976 13.4114C21.8306 14 21.9153 14.6306 21.9576 15.2612C22.0212 16.6276 21.9788 18.015 22 19.4024C22 19.7808 22 20.1591 22 20.5375C22 20.8108 21.8306 21 21.534 21.021C20.8139 21.021 20.115 21.021 19.3949 21.021C19.0983 21.021 18.9289 20.8318 18.9289 20.5375C18.9289 19.045 18.9289 17.5735 18.9289 16.0811C18.9289 15.6396 18.8865 15.2192 18.6747 14.8198C18.4418 14.3573 18.0605 14.1051 17.531 14.063C16.6626 14 16.1543 14.4624 15.879 15.1772C15.7519 15.5135 15.6883 15.8708 15.6883 16.2492C15.6883 17.6366 15.6883 19.024 15.6883 20.4114C15.6883 20.4744 15.6883 20.5585 15.6883 20.6216C15.6672 20.8738 15.4977 21.042 15.2436 21.042C14.5446 21.042 13.8669 21.042 13.1679 21.042C12.8926 21.042 12.7231 20.8528 12.7231 20.5796C12.7231 20.5375 12.7231 20.5165 12.7231 20.4744C12.7231 17.7207 12.7231 14.988 12.7231 12.2342C12.7231 12.1922 12.7231 12.1291 12.7231 12.0871C12.7443 11.8348 12.9349 11.6666 13.1679 11.6666C13.8457 11.6666 14.5446 11.6666 15.2224 11.6666C15.4977 11.6666 15.6672 11.8558 15.6883 12.1291C15.7095 12.2973 15.6883 12.4444 15.6883 12.6126C15.7307 12.6126 15.7307 12.6546 15.7307 12.7177Z" fill="white"/>
<path d="M11.41 16.3123C11.41 17.6787 11.41 19.0451 11.41 20.3904C11.41 20.4955 11.41 20.6216 11.3465 20.7267C11.2618 20.9159 11.0923 21 10.9017 21C10.2451 21 9.58855 21 8.91079 21C8.59309 21 8.40247 20.7898 8.40247 20.4745C8.40247 19.2132 8.40247 17.952 8.40247 16.6907C8.40247 15.2192 8.40247 13.7267 8.40247 12.2553C8.40247 11.8138 8.57191 11.6457 9.01669 11.6457C9.60973 11.6457 10.2028 11.6457 10.817 11.6457C11.2194 11.6457 11.3888 11.8138 11.3888 12.2132C11.41 13.5586 11.41 14.9249 11.41 16.3123Z" fill="white"/>
<path d="M8 8.91291C8 7.86186 8.8472 7 9.9062 7C10.9652 7 11.8336 7.86186 11.8336 8.91291C11.8336 9.96396 10.9652 10.8258 9.9062 10.8258C8.8472 10.8258 8 9.98499 8 8.91291Z" fill="white"/>
</g>
<defs>
<clipPath id="clip0">
<rect width="14" height="14" fill="white" transform="translate(8 7)"/>
</clipPath>
</defs>
</svg>
