<svg width="62" height="62" viewBox="0 0 62 62" fill="none" xmlns="http://www.w3.org/2000/svg">
<path d="M31 62C48.1208 62 62 48.1208 62 31C62 13.8792 48.1208 0 31 0C13.8792 0 0 13.8792 0 31C0 48.1208 13.8792 62 31 62Z" fill="#1CD641"/>
<path d="M11.2615 51.2232C11.9378 48.8221 12.5804 46.5225 13.2342 44.2229C13.4822 43.3436 13.7189 42.453 13.9895 41.5738C14.0684 41.3032 14.0571 41.0891 13.9106 40.8298C12.2084 37.8312 11.3404 34.596 11.3291 31.1465C11.3066 26.8629 12.5127 22.9287 14.9815 19.4116C17.5066 15.8381 20.8433 13.3243 24.9804 11.8927C28.1818 10.788 31.4735 10.4836 34.8102 11.1036C41.9684 12.4225 47.0524 16.4694 50.0058 23.0865C51.5953 26.6374 52.0124 30.4138 51.3247 34.269C50.1862 40.6607 46.7818 45.5192 41.1229 48.608C35.0018 51.9447 28.6778 51.9785 22.3877 48.9236C21.8466 48.6643 21.3844 48.5854 20.7982 48.7432C17.6531 49.5887 14.508 50.3778 11.2615 51.2232ZM48.2135 31.4171C48.1571 28.9709 47.8415 27.032 47.1426 25.1381C44.3018 17.4389 36.084 12.8847 28.0578 14.5756C21.0687 16.0523 15.7593 21.8127 14.88 28.892C14.3727 32.984 15.2858 36.7603 17.5291 40.2098C17.732 40.5254 17.7658 40.796 17.6644 41.1454C17.2022 42.7349 16.7851 44.3243 16.3117 45.9025C16.1651 46.3985 16.3229 46.3872 16.7062 46.2858C18.3182 45.8574 19.9415 45.4516 21.5535 45.0232C21.9593 44.9218 22.2749 44.9443 22.6469 45.1698C26.9644 47.7738 31.5636 48.3825 36.3884 46.9396C43.3549 44.8654 48.2022 38.2709 48.2135 31.4171Z" fill="#FCFEFD"/>
<path d="M25.0142 21.5533C25.9498 21.3391 26.4233 21.8802 26.7389 22.782C27.156 23.9206 27.6745 25.0253 28.1705 26.1413C28.3847 26.626 28.3396 27.0318 27.9676 27.4264C27.5167 27.9111 27.1109 28.4184 26.6713 28.9144C26.412 29.2075 26.3782 29.4893 26.5698 29.8275C28.2044 32.7246 30.628 34.6973 33.7167 35.8809C34.0662 36.0162 34.2916 35.8697 34.4945 35.6104C34.9905 34.9678 35.4978 34.3478 35.9713 33.694C36.2869 33.2544 36.6476 33.1642 37.1436 33.4009C38.4625 34.0209 39.7814 34.6522 41.1229 35.2384C41.6865 35.4864 41.7767 35.8584 41.6865 36.4107C41.1342 40.0518 37.7636 41.2017 34.844 40.3224C30.4476 39.0035 26.9531 36.422 24.1462 32.8373C22.94 31.3042 21.9254 29.6809 21.4745 27.7533C20.9447 25.4537 21.5422 23.5373 23.3007 21.9591C23.7742 21.5308 24.3378 21.4857 25.0142 21.5533Z" fill="#FCFEFD"/>
</svg>
